<mxfile host="app.diagrams.net" modified="2023-05-25T20:50:09.798Z" agent="Mozilla/5.0 (Windows NT 10.0; Win64; x64) AppleWebKit/537.36 (KHTML, like Gecko) Chrome/113.0.0.0 Safari/537.36" etag="sMmB34cDG5HDAJpfY-bW" version="21.2.9" type="device">
  <diagram name="Page-1" id="wG474OFWXvd6E2WIAW7N">
    <mxGraphModel dx="1793" dy="874" grid="1" gridSize="10" guides="1" tooltips="1" connect="1" arrows="1" fold="1" page="1" pageScale="1" pageWidth="827" pageHeight="1169" math="0" shadow="0">
      <root>
        <mxCell id="0" />
        <mxCell id="1" parent="0" />
        <mxCell id="-ID0I0zZU8n9CK_9Ssc_-2" value="" style="whiteSpace=wrap;html=1;" parent="1" vertex="1">
          <mxGeometry x="143" y="105" width="540" height="960" as="geometry" />
        </mxCell>
        <mxCell id="qbW8uiqP1qFqK9IZucpS-2" value="&lt;font style=&quot;font-size: 22px;&quot;&gt;Seasonal Specials&lt;/font&gt;" style="text;html=1;strokeColor=none;fillColor=none;align=center;verticalAlign=middle;whiteSpace=wrap;rounded=0;" vertex="1" parent="1">
          <mxGeometry x="140" y="200" width="220" height="30" as="geometry" />
        </mxCell>
        <mxCell id="qbW8uiqP1qFqK9IZucpS-5" value="Food Item 2 Image" style="whiteSpace=wrap;html=1;aspect=fixed;" vertex="1" parent="1">
          <mxGeometry x="335" y="230" width="150" height="150" as="geometry" />
        </mxCell>
        <mxCell id="qbW8uiqP1qFqK9IZucpS-9" value="" style="rounded=0;whiteSpace=wrap;html=1;" vertex="1" parent="1">
          <mxGeometry x="143" y="105" width="457" height="85" as="geometry" />
        </mxCell>
        <mxCell id="qbW8uiqP1qFqK9IZucpS-6" value="Food Item 3 Image" style="whiteSpace=wrap;html=1;aspect=fixed;" vertex="1" parent="1">
          <mxGeometry x="510" y="230" width="150" height="150" as="geometry" />
        </mxCell>
        <mxCell id="qbW8uiqP1qFqK9IZucpS-7" value="" style="rounded=0;whiteSpace=wrap;html=1;" vertex="1" parent="1">
          <mxGeometry x="160" y="390" width="500" height="10" as="geometry" />
        </mxCell>
        <mxCell id="qbW8uiqP1qFqK9IZucpS-8" value="Food Item 1 Image" style="whiteSpace=wrap;html=1;aspect=fixed;" vertex="1" parent="1">
          <mxGeometry x="160" y="230" width="150" height="150" as="geometry" />
        </mxCell>
        <mxCell id="qbW8uiqP1qFqK9IZucpS-1" value="" style="shape=image;html=1;verticalAlign=top;verticalLabelPosition=bottom;labelBackgroundColor=#ffffff;imageAspect=0;aspect=fixed;image=https://cdn1.iconfinder.com/data/icons/heroicons-solid/20/view-list-128.png" vertex="1" parent="1">
          <mxGeometry x="148" y="113" width="65" height="65" as="geometry" />
        </mxCell>
        <mxCell id="qbW8uiqP1qFqK9IZucpS-3" value="&lt;font style=&quot;font-size: 22px;&quot;&gt;Welcome to QuickBite Banner&lt;/font&gt;" style="text;html=1;strokeColor=none;fillColor=none;align=center;verticalAlign=middle;whiteSpace=wrap;rounded=0;" vertex="1" parent="1">
          <mxGeometry x="250" y="130.5" width="297" height="30" as="geometry" />
        </mxCell>
        <mxCell id="qbW8uiqP1qFqK9IZucpS-11" value="" style="rounded=0;whiteSpace=wrap;html=1;" vertex="1" parent="1">
          <mxGeometry x="667" y="230" width="10" height="590" as="geometry" />
        </mxCell>
        <mxCell id="qbW8uiqP1qFqK9IZucpS-10" value="" style="rounded=0;whiteSpace=wrap;html=1;labelBackgroundColor=#070708;fillColor=#070708;" vertex="1" parent="1">
          <mxGeometry x="667" y="230" width="10" height="50" as="geometry" />
        </mxCell>
        <mxCell id="qbW8uiqP1qFqK9IZucpS-13" value="" style="rounded=0;whiteSpace=wrap;html=1;labelBackgroundColor=#070708;fillColor=#070708;" vertex="1" parent="1">
          <mxGeometry x="160" y="390" width="110" height="10" as="geometry" />
        </mxCell>
        <mxCell id="qbW8uiqP1qFqK9IZucpS-15" value="Food Item 2 Image" style="whiteSpace=wrap;html=1;aspect=fixed;" vertex="1" parent="1">
          <mxGeometry x="335" y="440" width="150" height="150" as="geometry" />
        </mxCell>
        <mxCell id="qbW8uiqP1qFqK9IZucpS-16" value="Food Item 3 Image" style="whiteSpace=wrap;html=1;aspect=fixed;" vertex="1" parent="1">
          <mxGeometry x="510" y="440" width="150" height="150" as="geometry" />
        </mxCell>
        <mxCell id="qbW8uiqP1qFqK9IZucpS-17" value="Food Item 1 Image" style="whiteSpace=wrap;html=1;aspect=fixed;" vertex="1" parent="1">
          <mxGeometry x="160" y="440" width="150" height="150" as="geometry" />
        </mxCell>
        <mxCell id="qbW8uiqP1qFqK9IZucpS-19" value="" style="rounded=0;whiteSpace=wrap;html=1;" vertex="1" parent="1">
          <mxGeometry x="160" y="600" width="500" height="10" as="geometry" />
        </mxCell>
        <mxCell id="qbW8uiqP1qFqK9IZucpS-18" value="" style="rounded=0;whiteSpace=wrap;html=1;labelBackgroundColor=#070708;fillColor=#070708;" vertex="1" parent="1">
          <mxGeometry x="160" y="600" width="110" height="10" as="geometry" />
        </mxCell>
        <mxCell id="qbW8uiqP1qFqK9IZucpS-21" value="&lt;font style=&quot;font-size: 22px;&quot;&gt;Meal Combos&lt;/font&gt;" style="text;html=1;strokeColor=none;fillColor=none;align=center;verticalAlign=middle;whiteSpace=wrap;rounded=0;" vertex="1" parent="1">
          <mxGeometry x="143" y="410" width="167" height="30" as="geometry" />
        </mxCell>
        <mxCell id="qbW8uiqP1qFqK9IZucpS-28" value="Food Item 2 Image" style="whiteSpace=wrap;html=1;aspect=fixed;" vertex="1" parent="1">
          <mxGeometry x="335" y="650" width="150" height="150" as="geometry" />
        </mxCell>
        <mxCell id="qbW8uiqP1qFqK9IZucpS-29" value="Food Item 3 Image" style="whiteSpace=wrap;html=1;aspect=fixed;" vertex="1" parent="1">
          <mxGeometry x="510" y="650" width="150" height="150" as="geometry" />
        </mxCell>
        <mxCell id="qbW8uiqP1qFqK9IZucpS-30" value="Food Item 1 Image" style="whiteSpace=wrap;html=1;aspect=fixed;" vertex="1" parent="1">
          <mxGeometry x="160" y="650" width="150" height="150" as="geometry" />
        </mxCell>
        <mxCell id="qbW8uiqP1qFqK9IZucpS-31" value="" style="rounded=0;whiteSpace=wrap;html=1;" vertex="1" parent="1">
          <mxGeometry x="160" y="810" width="500" height="10" as="geometry" />
        </mxCell>
        <mxCell id="qbW8uiqP1qFqK9IZucpS-32" value="" style="rounded=0;whiteSpace=wrap;html=1;labelBackgroundColor=#070708;fillColor=#070708;" vertex="1" parent="1">
          <mxGeometry x="160" y="810" width="110" height="10" as="geometry" />
        </mxCell>
        <mxCell id="qbW8uiqP1qFqK9IZucpS-33" value="&lt;span style=&quot;font-size: 22px;&quot;&gt;Today&#39;s Bargains&lt;/span&gt;" style="text;html=1;strokeColor=none;fillColor=none;align=center;verticalAlign=middle;whiteSpace=wrap;rounded=0;" vertex="1" parent="1">
          <mxGeometry x="143" y="620" width="197" height="30" as="geometry" />
        </mxCell>
        <mxCell id="qbW8uiqP1qFqK9IZucpS-34" value="Points Tab" style="rounded=0;whiteSpace=wrap;html=1;" vertex="1" parent="1">
          <mxGeometry x="593" y="105" width="90" height="85" as="geometry" />
        </mxCell>
        <mxCell id="qbW8uiqP1qFqK9IZucpS-35" value="Checkout Button" style="rounded=0;whiteSpace=wrap;html=1;" vertex="1" parent="1">
          <mxGeometry x="160" y="830" width="410" height="90" as="geometry" />
        </mxCell>
        <mxCell id="qbW8uiqP1qFqK9IZucpS-36" value="Cost Tab" style="rounded=0;whiteSpace=wrap;html=1;" vertex="1" parent="1">
          <mxGeometry x="578.5" y="830" width="98.5" height="90" as="geometry" />
        </mxCell>
        <mxCell id="qbW8uiqP1qFqK9IZucpS-37" value="Accessibility Menu Buttons" style="rounded=0;whiteSpace=wrap;html=1;" vertex="1" parent="1">
          <mxGeometry x="160" y="930" width="250" height="30" as="geometry" />
        </mxCell>
        <mxCell id="qbW8uiqP1qFqK9IZucpS-38" value="Language Menu Buttons" style="rounded=0;whiteSpace=wrap;html=1;" vertex="1" parent="1">
          <mxGeometry x="430" y="930" width="247" height="30" as="geometry" />
        </mxCell>
        <mxCell id="qbW8uiqP1qFqK9IZucpS-39" value="Advertisement Banner" style="rounded=0;whiteSpace=wrap;html=1;" vertex="1" parent="1">
          <mxGeometry x="160" y="980" width="517" height="73" as="geometry" />
        </mxCell>
      </root>
    </mxGraphModel>
  </diagram>
</mxfile>
